<svg width="16" height="10" viewBox="0 0 16 10" fill="none" xmlns="http://www.w3.org/2000/svg">
<path d="M7.29838 0.325694C7.28838 0.337694 7.28438 0.353693 7.27438 0.365693L0.292377 8.07969C-0.0976233 8.51369 -0.0976234 9.21769 0.292377 9.65169C0.296377 9.65569 0.300376 9.65769 0.304376 9.65969C0.391146 9.76478 0.49982 9.84966 0.6228 9.90838C0.74578 9.96711 0.8801 9.99827 1.01638 9.99969L14.9824 9.99969C15.1212 9.99745 15.2577 9.96477 15.3825 9.90394C15.5073 9.84312 15.6171 9.75564 15.7044 9.64769L15.7084 9.6517C15.8971 9.43332 16.001 9.15433 16.001 8.86569C16.001 8.57706 15.8971 8.29807 15.7084 8.07969L8.71038 0.325694C8.62326 0.223573 8.51502 0.141567 8.39313 0.0853341C8.27125 0.0291012 8.13861 -1.97608e-05 8.00438 -1.97726e-05C7.87014 -1.97843e-05 7.73751 0.0291012 7.61562 0.085334C7.49373 0.141567 7.3855 0.223573 7.29838 0.325694Z" fill="#636363"/>
</svg>
